# xmcd
#
# Track frame offsets:
#	150
#	18187
#	33885
#	50087
#	76675
#	89707
#	104805
#	119997
#	136722
#	148610
#
# Disc length: 2249 seconds
# Revision: 0
# Processed by: cddbd v1.5.2PL0 Copyright (c) Steve Scherf et al.
# Submitted via: dBpowerAMP V12.0
#
DISCID=8908c70a
DTITLE=Chico Buarque and Edu Lobo - Cambaio
DYEAR=2001
DGENRE=Brazil
TTITLE0=Cambaio (Lenine)
TTITLE1=Uma Canção Inédita (Chico Buarque)
TTITLE2=Lábia (Zizi Possi)
TTITLE3=A Moça do Sonho (Edu Lobo)
TTITLE4=Ode aos Ratos (Chico Buarque)
TTITLE5=Quase Memória 
TTITLE6=Veneta (Gal Costa)
TTITLE7=Noite de Verão (Edu Lobo)
TTITLE8=A Fábrica
TTITLE9=Cantiga de Acordar (Chico, Edu and Zizi)
EXTD=
EXTT0=
EXTT1=
EXTT2=
EXTT3=
EXTT4=
EXTT5=
EXTT6=
EXTT7=
EXTT8=
EXTT9=
PLAYORDER=
